solid ex cover 3
facet normal 0.0 0.0 -1.0
  outer loop
    vertex 65.18021800000002 69.089288 0.0
    vertex 2.98553 -3.1792189999999994 5.024202581694261e-16
    vertex 2.98553 69.089288 5.024202581694261e-16
  endloop
endfacet
facet normal 0.0 0.0 -1.0
  outer loop
    vertex 2.98553 -3.1792189999999994 5.024202581694261e-16
    vertex 65.18021800000002 69.089288 0.0
    vertex 65.18021800000002 -3.1792189999999994 0.0
  endloop
endfacet
facet normal 0.0 1.0 0.0
  outer loop
    vertex 2.98553 69.089288 5.024202581694261e-16
    vertex 65.18021800000002 69.089288 1.0473120000000005
    vertex 65.18021800000002 69.089288 0.0
  endloop
endfacet
facet normal 0.0 1.0 0.0
  outer loop
    vertex 65.18021800000002 69.089288 1.0473120000000005
    vertex 2.98553 69.089288 5.024202581694261e-16
    vertex 2.98553 69.089288 1.0473120000000005
  endloop
endfacet
facet normal 1.0 0.0 0.0
  outer loop
    vertex 65.18021800000002 69.089288 0.0
    vertex 65.18021800000002 -3.1792189999999994 1.0473120000000005
    vertex 65.18021800000002 -3.1792189999999994 0.0
  endloop
endfacet
facet normal 1.0 0.0 0.0
  outer loop
    vertex 65.18021800000002 -3.1792189999999994 1.0473120000000005
    vertex 65.18021800000002 69.089288 0.0
    vertex 65.18021800000002 69.089288 1.0473120000000005
  endloop
endfacet
facet normal -0.0 -1.0 -0.0
  outer loop
    vertex 65.18021800000002 -3.1792189999999994 1.0473120000000005
    vertex 2.98553 -3.1792189999999994 5.024202581694261e-16
    vertex 65.18021800000002 -3.1792189999999994 0.0
  endloop
endfacet
facet normal -0.0 -1.0 -0.0
  outer loop
    vertex 2.98553 -3.1792189999999994 5.024202581694261e-16
    vertex 65.18021800000002 -3.1792189999999994 1.0473120000000005
    vertex 2.98553 -3.1792189999999994 1.0473120000000005
  endloop
endfacet
facet normal -1.0 -9.023747472743613e-21 -1.6828511459252668e-16
  outer loop
    vertex 2.9855299999999994 -1.7870779999999995 1.0473120000000005
    vertex 2.98553 -3.1792189999999994 5.024202581694261e-16
    vertex 2.98553 -3.1792189999999994 1.0473120000000005
  endloop
endfacet
facet normal -1.0 -9.023747472743613e-21 -1.6828511459252668e-16
  outer loop
    vertex 2.98553 -3.1792189999999994 5.024202581694261e-16
    vertex 2.9855299999999994 -1.7870779999999995 1.0473120000000005
    vertex 2.98553 69.089288 5.024202581694261e-16
  endloop
endfacet
facet normal -1.0 -9.023747472743613e-21 -1.6828511459252668e-16
  outer loop
    vertex 2.98553 69.089288 5.024202581694261e-16
    vertex 2.9855299999999994 -1.7870779999999995 1.0473120000000005
    vertex 2.9855299999999994 68.08954499999999 1.0473120000000005
  endloop
endfacet
facet normal -1.0 -9.023747472743613e-21 -1.6828511459252668e-16
  outer loop
    vertex 2.98553 69.089288 5.024202581694261e-16
    vertex 2.9855299999999994 68.08954499999999 1.0473120000000005
    vertex 2.98553 69.089288 1.0473120000000005
  endloop
endfacet
facet normal -0.0 -0.0 1.0
  outer loop
    vertex 4.423165999999998 -1.7870779999999995 3.0
    vertex 5.687200784796485 0.10391878479648652 3.0
    vertex 4.423165999999998 68.08954499999999 3.0
  endloop
endfacet
facet normal -0.0 -0.0 1.0
  outer loop
    vertex 5.687200784796485 0.10391878479648652 3.0
    vertex 4.423165999999998 -1.7870779999999995 3.0
    vertex 63.739975999999984 -1.7870779999999995 3.0
  endloop
endfacet
facet normal -0.0 -0.0 1.0
  outer loop
    vertex 5.687200784796485 0.10391878479648652 3.0
    vertex 63.739975999999984 -1.7870779999999995 3.0
    vertex 61.5974472152035 0.10391878479648617 3.0
  endloop
endfacet
facet normal -0.0 -0.0 1.0
  outer loop
    vertex 61.5974472152035 0.10391878479648617 3.0
    vertex 63.739975999999984 -1.7870779999999995 3.0
    vertex 61.5974472152035 66.49996321520351 3.0
  endloop
endfacet
facet normal -0.0 -0.0 1.0
  outer loop
    vertex 4.423165999999998 68.08954499999999 3.0
    vertex 5.687200784796485 66.49996321520351 3.0
    vertex 63.739975999999984 68.08954499999999 3.0
  endloop
endfacet
facet normal -0.0 -0.0 1.0
  outer loop
    vertex 5.687200784796485 66.49996321520351 3.0
    vertex 4.423165999999998 68.08954499999999 3.0
    vertex 5.687200784796485 0.10391878479648652 3.0
  endloop
endfacet
facet normal -0.0 -0.0 1.0
  outer loop
    vertex 63.739975999999984 68.08954499999999 3.0
    vertex 5.687200784796485 66.49996321520351 3.0
    vertex 61.5974472152035 66.49996321520351 3.0
  endloop
endfacet
facet normal -0.0 -0.0 1.0
  outer loop
    vertex 63.739975999999984 68.08954499999999 3.0
    vertex 61.5974472152035 66.49996321520351 3.0
    vertex 63.739975999999984 -1.7870779999999995 3.0
  endloop
endfacet
facet normal -0.0 -0.0 1.0
  outer loop
    vertex 2.98553 -3.1792189999999994 1.0473120000000005
    vertex 4.423165999999998 -1.7870779999999995 1.0473120000000005
    vertex 2.9855299999999994 -1.7870779999999995 1.0473120000000005
  endloop
endfacet
facet normal -0.0 -0.0 1.0
  outer loop
    vertex 4.423165999999998 -1.7870779999999995 1.0473120000000005
    vertex 2.98553 -3.1792189999999994 1.0473120000000005
    vertex 65.18021800000002 -3.1792189999999994 1.0473120000000005
  endloop
endfacet
facet normal -0.0 -0.0 1.0
  outer loop
    vertex 4.423165999999998 -1.7870779999999995 1.0473120000000005
    vertex 65.18021800000002 -3.1792189999999994 1.0473120000000005
    vertex 63.739975999999984 -1.7870779999999995 1.0473120000000005
  endloop
endfacet
facet normal -0.0 -0.0 1.0
  outer loop
    vertex 63.739975999999984 -1.7870779999999995 1.0473120000000005
    vertex 65.18021800000002 -3.1792189999999994 1.0473120000000005
    vertex 63.739975999999984 68.08954499999999 1.0473120000000005
  endloop
endfacet
facet normal -0.0 -0.0 1.0
  outer loop
    vertex 4.423165999999998 68.08954499999999 1.0473120000000005
    vertex 2.98553 69.089288 1.0473120000000005
    vertex 2.9855299999999994 68.08954499999999 1.0473120000000005
  endloop
endfacet
facet normal -0.0 -0.0 1.0
  outer loop
    vertex 2.98553 69.089288 1.0473120000000005
    vertex 4.423165999999998 68.08954499999999 1.0473120000000005
    vertex 65.18021800000002 69.089288 1.0473120000000005
  endloop
endfacet
facet normal -0.0 -0.0 1.0
  outer loop
    vertex 65.18021800000002 69.089288 1.0473120000000005
    vertex 4.423165999999998 68.08954499999999 1.0473120000000005
    vertex 63.739975999999984 68.08954499999999 1.0473120000000005
  endloop
endfacet
facet normal -0.0 -0.0 1.0
  outer loop
    vertex 65.18021800000002 69.089288 1.0473120000000005
    vertex 63.739975999999984 68.08954499999999 1.0473120000000005
    vertex 65.18021800000002 -3.1792189999999994 1.0473120000000005
  endloop
endfacet
facet normal -0.0 1.0 -0.0
  outer loop
    vertex 4.423165999999998 68.08954499999999 3.0
    vertex 63.739975999999984 68.08954499999999 1.0473120000000005
    vertex 4.423165999999998 68.08954499999999 1.0473120000000005
  endloop
endfacet
facet normal -0.0 1.0 -0.0
  outer loop
    vertex 63.739975999999984 68.08954499999999 1.0473120000000005
    vertex 4.423165999999998 68.08954499999999 3.0
    vertex 63.739975999999984 68.08954499999999 3.0
  endloop
endfacet
facet normal 1.0 0.0 0.0
  outer loop
    vertex 63.739975999999984 68.08954499999999 1.0473120000000005
    vertex 63.739975999999984 -1.7870779999999995 3.0
    vertex 63.739975999999984 -1.7870779999999995 1.0473120000000005
  endloop
endfacet
facet normal 1.0 0.0 0.0
  outer loop
    vertex 63.739975999999984 -1.7870779999999995 3.0
    vertex 63.739975999999984 68.08954499999999 1.0473120000000005
    vertex 63.739975999999984 68.08954499999999 3.0
  endloop
endfacet
facet normal 0.0 0.0 1.0
  outer loop
    vertex 61.5974472152035 0.10391878479648617 1.6078930000000005
    vertex 5.687200784796485 66.49996321520351 1.6078930000000005
    vertex 5.687200784796485 0.10391878479648652 1.6078930000000005
  endloop
endfacet
facet normal 0.0 0.0 1.0
  outer loop
    vertex 5.687200784796485 66.49996321520351 1.6078930000000005
    vertex 61.5974472152035 0.10391878479648617 1.6078930000000005
    vertex 61.5974472152035 66.49996321520351 1.6078930000000005
  endloop
endfacet
facet normal -1.0 0.0 0.0
  outer loop
    vertex 61.5974472152035 66.49996321520351 3.0
    vertex 61.5974472152035 0.10391878479648617 1.6078930000000005
    vertex 61.5974472152035 0.10391878479648617 3.0
  endloop
endfacet
facet normal -1.0 0.0 0.0
  outer loop
    vertex 61.5974472152035 0.10391878479648617 1.6078930000000005
    vertex 61.5974472152035 66.49996321520351 3.0
    vertex 61.5974472152035 66.49996321520351 1.6078930000000005
  endloop
endfacet
facet normal -0.0 -1.0 -0.0
  outer loop
    vertex 61.5974472152035 66.49996321520351 3.0
    vertex 5.687200784796485 66.49996321520351 1.6078930000000005
    vertex 61.5974472152035 66.49996321520351 1.6078930000000005
  endloop
endfacet
facet normal -0.0 -1.0 -0.0
  outer loop
    vertex 5.687200784796485 66.49996321520351 1.6078930000000005
    vertex 61.5974472152035 66.49996321520351 3.0
    vertex 5.687200784796485 66.49996321520351 3.0
  endloop
endfacet
facet normal 1.0 0.0 0.0
  outer loop
    vertex 5.687200784796485 66.49996321520351 1.6078930000000005
    vertex 5.687200784796485 0.10391878479648652 3.0
    vertex 5.687200784796485 0.10391878479648652 1.6078930000000005
  endloop
endfacet
facet normal 1.0 0.0 0.0
  outer loop
    vertex 5.687200784796485 0.10391878479648652 3.0
    vertex 5.687200784796485 66.49996321520351 1.6078930000000005
    vertex 5.687200784796485 66.49996321520351 3.0
  endloop
endfacet
facet normal 6.418210695121136e-18 1.0 0.0
  outer loop
    vertex 5.687200784796485 0.10391878479648652 3.0
    vertex 61.5974472152035 0.10391878479648617 1.6078930000000005
    vertex 5.687200784796485 0.10391878479648652 1.6078930000000005
  endloop
endfacet
facet normal 6.418210695121136e-18 1.0 0.0
  outer loop
    vertex 61.5974472152035 0.10391878479648617 1.6078930000000005
    vertex 5.687200784796485 0.10391878479648652 3.0
    vertex 61.5974472152035 0.10391878479648617 3.0
  endloop
endfacet
facet normal 0.0 -1.0 0.0
  outer loop
    vertex 63.739975999999984 -1.7870779999999995 3.0
    vertex 4.423165999999998 -1.7870779999999995 1.0473120000000005
    vertex 63.739975999999984 -1.7870779999999995 1.0473120000000005
  endloop
endfacet
facet normal 0.0 -1.0 0.0
  outer loop
    vertex 4.423165999999998 -1.7870779999999995 1.0473120000000005
    vertex 63.739975999999984 -1.7870779999999995 3.0
    vertex 4.423165999999998 -1.7870779999999995 3.0
  endloop
endfacet
facet normal -1.0 0.0 0.0
  outer loop
    vertex 4.423165999999998 68.08954499999999 3.0
    vertex 4.423165999999998 -1.7870779999999995 1.0473120000000005
    vertex 4.423165999999998 -1.7870779999999995 3.0
  endloop
endfacet
facet normal -1.0 0.0 0.0
  outer loop
    vertex 4.423165999999998 -1.7870779999999995 1.0473120000000005
    vertex 4.423165999999998 68.08954499999999 3.0
    vertex 4.423165999999998 68.08954499999999 1.0473120000000005
  endloop
endfacet
facet normal 0.0 0.0 1.0
  outer loop
    vertex 4.423165999999998 -1.7870779999999995 1.0473120000000005
    vertex 2.9855299999999994 68.08954499999999 1.0473120000000005
    vertex 2.9855299999999994 -1.7870779999999995 1.0473120000000005
  endloop
endfacet
facet normal 0.0 0.0 1.0
  outer loop
    vertex 2.9855299999999994 68.08954499999999 1.0473120000000005
    vertex 4.423165999999998 -1.7870779999999995 1.0473120000000005
    vertex 4.423165999999998 68.08954499999999 1.0473120000000005
  endloop
endfacet
endsolid ex cover 3
